<svg t="1578732207080" class="icon" viewBox="0 0 1024 1024" version="1.1" xmlns="http://www.w3.org/2000/svg" p-id="25020" width="200" height="200"><path d="M648.77040125 849.06930031c4.06277531 0 2.87779969 5.07846938-3.55492781 15.12255281a175.37647688 175.37647688 0 0 1-29.34226781 33.29218875c-13.20402 12.07547156-28.77799312 23.13524906-46.66549126 33.29218782a114.94269094 114.94269094 0 0 1-57.27384937 15.06612656c-18.22606219 0-35.77499531-5.07846938-52.7032275-15.12255375a256.1805675 256.1805675 0 0 1-44.57767594-33.29218875 202.74378375 202.74378375 0 0 1-29.34226687-33.23576063c-6.7712925-10.04408438-8.80268063-15.12255375-6.15059063-15.12255281h269.61029719z m251.38423594-85.65685125a26.18233125 26.18233125 0 0 1 2.03138812 32.27649469 30.58367156 30.58367156 0 0 1-10.15693875 9.59266406 24.09451594 24.09451594 0 0 1-12.18832687 3.49850156H140.02062219a22.17598312 22.17598312 0 0 1-20.821725-11.567625c-4.34491312-7.73055937-2.82137156-17.32322344 4.57062281-28.77799312 11.51119687-20.144595 24.99735469-42.65914312 40.57132781-67.48721531 15.517545-24.82807219 30.18867938-51.57467813 44.01340125-80.1269625 13.88115-28.55228344 25.90019438-58.79739 36.05713313-90.73531969 10.15693875-31.8815025 15.17898094-65.34297281 15.17898094-100.27155656 0-33.57432563 4.73990438-63.81943219 14.16328687-90.67889344 9.47980969-26.9158875 21.83741812-50.38970156 37.01639906-70.53429656a244.61294344 244.61294344 0 0 1 115.05554532-83.62546313 102.02080781 102.02080781 0 0 1-16.25110219-54.508905c0-27.53658937 9.47980969-50.67183937 28.38300187-69.51860344 18.90319125-18.79033688 42.26415094-28.21371938 69.97002282-28.21371937 27.64944469 0 51.01040344 9.4233825 69.91359562 28.21371937 18.90319125 18.84676406 28.38300094 41.98201406 28.38300094 69.51860344 0 9.4233825-1.35425813 18.62105437-4.06277531 27.76229906a97.05519281 97.05519281 0 0 1-11.17263282 24.65879063c23.02239469 7.39199438 44.80338563 18.169635 65.3994 32.27649469 20.59601437 14.10685969 38.4835125 31.59936563 53.71892157 52.42108968 15.23540812 20.821725 27.36730781 44.63410313 36.45212437 71.54999063 9.14124469 26.85946031 13.7118675 56.76600281 13.7118675 89.71962656 0 33.57432563 5.07846938 66.64080375 15.23540813 99.25586344 10.10051156 32.55863156 22.2888375 63.48086719 36.45212531 92.71027969s29.2294125 55.91959125 45.14194969 80.1269625c15.79968281 24.15094312 30.18867938 45.02909531 43.05413531 62.46517312zM468.315455 130.46587906c0 10.77764063 3.72421125 20.03174063 11.17263281 27.76229907a36.5085525 36.5085525 0 0 0 27.36730781 11.567625h2.03138719a41.1356025 41.1356025 0 0 0 27.31088063-12.07547157 36.90354469 36.90354469 0 0 0 11.17263281-27.2544525 38.14494844 38.14494844 0 0 0-11.17263281-28.21371937 38.53993969 38.53993969 0 0 0-28.32657375-11.0597775 38.53993969 38.53993969 0 0 0-28.38300188 11.0597775 38.14494844 38.14494844 0 0 0-11.17263281 28.21371937z" p-id="25021" fill="#bfbfbf"></path></svg>
