<svg t="1578730251534" class="icon" viewBox="0 0 1024 1024" version="1.1" xmlns="http://www.w3.org/2000/svg" p-id="11385" width="200" height="200"><path d="M354.785882 662.588235l208.414118-59.151059L414.418824 455.559529 354.846118 662.588235z m556.574118-405.142588L762.578824 109.507765 435.139765 434.959059l148.781176 147.877647 327.439059-325.391059z m-43.369412 547.779765c0 51.380706-41.682824 93.063529-93.063529 93.063529H216.244706a93.123765 93.123765 0 0 1-93.123765-93.063529V246.603294A93.063529 93.063529 0 0 1 216.304941 153.6h372.434824l93.063529-93.063529H185.283765A155.166118 155.166118 0 0 0 30.117647 215.582118v620.604235a155.166118 155.166118 0 0 0 155.166118 155.166118H805.948235a155.166118 155.166118 0 0 0 155.105883-155.166118V339.727059L867.990588 432.790588v372.434824zM980.510118 133.12L887.506824 40.719059c-15.420235-15.299765-41.261176-14.456471-57.705412 1.807059l-44.574118 44.453647 148.781177 147.877647 44.634353-44.333177c16.444235-16.384 17.287529-42.044235 1.867294-57.344z" fill="#bfbfbf" p-id="11386"></path></svg>