<svg t="1578730041517" class="icon" viewBox="0 0 1024 1024" version="1.1" xmlns="http://www.w3.org/2000/svg" p-id="7657" width="200" height="200"><path d="M872 125q28 0 47.5 19.5t19.5 47.5v51q0 28-19.5 47.5t-47.5 19.5h-742q-28 0-47.5-19.5t-19.5-47.5v-51q0-28 19.5-47.5t47.5-19.5h742zM872 438q28 0 47.5 19.5t19.5 47.5v51q0 28-19.5 47.5t-47.5 19.5h-742q-28 0-47.5-19.5t-19.5-47.5v-51q0-28 19.5-47.5t47.5-19.5h742zM872 751q28 0 47.5 19.5t19.5 47.5v51q0 28-19.5 47.5t-47.5 19.5h-742q-28 0-47.5-19.5t-19.5-47.5v-51q0-28 19.5-47.5t47.5-19.5h742z" p-id="7658" fill="#bfbfbf"></path></svg>