<?xml version="1.0" standalone="no"?><!DOCTYPE svg PUBLIC "-//W3C//DTD SVG 1.1//EN" "http://www.w3.org/Graphics/SVG/1.1/DTD/svg11.dtd"><svg t="1578726496018" class="icon" viewBox="0 0 1024 1024" version="1.1" xmlns="http://www.w3.org/2000/svg" p-id="7204" xmlns:xlink="http://www.w3.org/1999/xlink" width="200" height="200"><defs><style type="text/css"></style></defs><path d="M774.836706 14.230588 256.135529 14.230588c-131.011765 0-237.583059 106.586353-237.583059 237.583059l0 518.701176c0 130.996706 106.586353 237.583059 237.583059 237.583059l518.701176 0c130.996706 0 237.583059-106.586353 237.583059-237.583059L1012.419765 251.828706C1012.419765 120.816941 905.833412 14.230588 774.836706 14.230588zM323.644235 817.874824c0 14.471529-11.745882 26.232471-26.172235 26.232471l-12.333176 0c-14.426353 0-26.127059-11.760941-26.127059-26.232471L259.011765 557.086118c0-14.501647 11.715765-26.262588 26.127059-26.262588l12.333176 0c14.426353 0 26.172235 11.760941 26.172235 26.262588L323.644235 817.874824zM549.481412 818.416941c0 14.170353-11.760941 25.705412-26.307765 25.705412l-12.860235 0c-14.531765 0-26.307765-11.535059-26.307765-25.705412L484.005647 394.149647c0-14.155294 11.776-25.660235 26.307765-25.660235l12.860235 0c14.546824 0 26.307765 11.504941 26.307765 25.660235L549.481412 818.416941zM774.460235 818.416941c0 14.170353-11.700706 25.705412-26.112 25.705412l-12.348235 0c-14.411294 0-26.112-11.535059-26.112-25.705412l0-601.148235c0-14.170353 11.700706-25.675294 26.112-25.675294l12.348235 0c14.411294 0 26.112 11.504941 26.112 25.675294L774.460235 818.416941z" p-id="7205" fill="#bfbfbf"></path></svg>