<?xml version="1.0" standalone="no"?><!DOCTYPE svg PUBLIC "-//W3C//DTD SVG 1.1//EN" "http://www.w3.org/Graphics/SVG/1.1/DTD/svg11.dtd"><svg t="1568793353484" class="icon" viewBox="0 0 1024 1024" version="1.1" xmlns="http://www.w3.org/2000/svg" p-id="984" xmlns:xlink="http://www.w3.org/1999/xlink" width="200" height="200"><defs><style type="text/css"></style></defs><path d="M 113.892 811.577 h 38.2293 V 689.038 c 0 -18.0907 15.36 -32.768 33.5644 -32.768 h 232.903 V 521.102 c 0 -21.8453 -3.64089 -41.984 -11.0364 -59.8471 c -7.39556 -19.0009 -18.6596 -35.7262 -33.792 -51.5413 c -15.8151 -17.1804 -28.7858 -36.864 -37.888 -58.2542 c -8.64711 -21.3902 -12.9707 -44.1458 -12.9707 -67.8116 c 0 -51.3138 21.3902 -98.1902 56.0924 -131.527 c 34.5884 -33.4507 82.4889 -53.8169 135.737 -53.8169 c 51.7689 0 98.7591 19.6836 133.348 52.224 l 2.38933 1.59289 C 684.942 185.572 706.56 232.448 706.56 283.648 c 0 23.6658 -4.77867 46.4213 -13.4258 67.8116 c -8.192 20.5938 -20.5938 39.4809 -35.9538 56.0924 l -1.47911 2.048 c -15.36 15.8151 -26.3964 32.4267 -34.0196 51.5413 c -7.39556 17.8631 -11.0364 38.0018 -11.0364 59.8471 v 135.282 h 228.011 c 19.0009 0 33.792 14.5636 33.792 32.768 v 122.425 h 37.888 c 11.0364 0 20.1387 8.53333 20.1387 19.2284 v 84.1956 c 0 11.1502 -9.10222 19.6836 -20.1387 19.6836 h -796.444 c -10.8089 0 -19.9111 -8.53333 -19.9111 -19.6836 V 830.805 c 0 -10.6951 9.10222 -19.2284 19.9111 -19.2284 Z m 105.813 0 h 584.932 V 722.034 h -227.556 c -19.2284 0 -34.0196 -14.7911 -34.0196 -32.8818 V 521.102 c 0 -29.9236 5.23378 -57.7991 15.8151 -83.968 c 10.5813 -25.7138 26.1689 -49.6071 46.9902 -71.4524 l 1.47911 -1.82044 c 10.0124 -10.6951 17.7493 -22.9831 23.3244 -36.1813 c 5.23378 -13.4258 8.41956 -28.3307 8.41956 -43.8044 c 0 -33.4507 -14.1084 -63.3742 -36.4089 -84.6507 l -1.47911 -1.82044 c -22.528 -20.8213 -52.7929 -33.9058 -86.3573 -33.9058 c -34.4747 0 -65.1947 13.8809 -87.7227 35.7262 c -22.528 21.2764 -36.7502 51.3138 -36.7502 84.6507 c 0 15.5876 3.072 30.3787 8.41956 43.8044 c 5.80267 13.8809 14.1084 26.9653 24.2347 38.0018 h 0.227556 c 20.5938 21.8453 36.9778 45.7387 46.9902 71.4524 c 10.8089 26.2827 15.8151 54.0444 15.8151 83.968 v 168.05 c 0 18.0907 -14.9049 32.8818 -33.5644 32.8818 H 219.705 V 811.577 Z M 889.742 850.489 H 134.827 v 45.2836 H 889.742 v -45.2836 Z" fill="#696969" p-id="985"></path></svg>