<?xml version="1.0" standalone="no"?><!DOCTYPE svg PUBLIC "-//W3C//DTD SVG 1.1//EN" "http://www.w3.org/Graphics/SVG/1.1/DTD/svg11.dtd"><svg t="1591161939751" class="icon" viewBox="0 0 1024 1024" version="1.1" xmlns="http://www.w3.org/2000/svg" p-id="23900" xmlns:xlink="http://www.w3.org/1999/xlink" width="128" height="128"><defs><style type="text/css"></style></defs><path d="M121.218 393.056C172.314 225.72 327.94 104 512 104s339.686 121.72 390.782 289.056c67.276 1.936 121.218 57.08 121.218 124.826 0 68.898-55.796 124.764-124.666 124.878C844.964 804.53 692.09 921.06 512 921.06S179.036 804.53 124.666 642.76C55.796 642.646 0 586.78 0 517.88c0-67.742 53.942-122.888 121.218-124.824zM624.68 624.92h10.412c61.086 0 110.606-49.52 110.606-110.606 0-61.086-49.52-110.606-110.606-110.606h-242.62c-61.086 0-110.606 49.52-110.606 110.606 0 61.086 49.52 110.606 110.606 110.606h10.996v54.014c0 61.086 49.52 110.606 110.606 110.606 61.086 0 110.606-49.52 110.606-110.606V624.92z m274.44-74.926c17.734 0 32.112-14.378 32.112-32.112 0-17.736-14.378-32.112-32.112-32.112v64.224z m-774.244 0v-64.224c-17.734 0-32.112 14.376-32.112 32.112 0 17.734 14.378 32.112 32.112 32.112z m339.82 114.174h98.174a8 8 0 0 1 8 8v12.542a8 8 0 0 1-8 8h-98.176a8 8 0 0 1-8-8v-12.542a8 8 0 0 1 8-8z m-72.224-107.04c-21.676 0-39.248-17.57-39.248-39.246 0-21.676 17.572-39.248 39.248-39.248s39.248 17.572 39.248 39.248-17.572 39.246-39.248 39.246z m242.62 0c-21.676 0-39.248-17.57-39.248-39.246 0-21.676 17.572-39.248 39.248-39.248s39.248 17.572 39.248 39.248-17.572 39.246-39.248 39.246z m-99.902 28.544a14.272 14.272 0 1 1 0-28.544 14.272 14.272 0 0 1 0 28.544z m-42.816 0a14.272 14.272 0 1 1 0-28.544 14.272 14.272 0 0 1 0 28.544z" p-id="23901" fill="#cdcdcd"></path></svg>