<svg t="1562757480127" class="icon" viewBox="0 0 1099 1024" version="1.1" xmlns="http://www.w3.org/2000/svg" p-id="4962" width="64" height="64"><path d="M628.06 763.8l0 44.4c120.6-22.7 221.6-122.6 246.6-257.1l-44 0C809.56 649.9 732.96 735.7 628.06 763.8z" p-id="4963"></path><path d="M776.704 512.512c0 112.128-91.136 203.264-203.264 203.264S370.176 624.64 370.176 512.512 460.8 309.248 573.44 309.248 776.704 400.384 776.704 512.512zM573.952 342.528c-94.208 0-170.496 76.288-170.496 170.496s76.288 170.496 170.496 170.496 170.496-76.288 170.496-170.496S668.16 342.528 573.952 342.528z" p-id="4964"></path><path d="M830.66 468.5l44 0C849.66 334 748.66 234 628.06 211.4l0 44.4C732.96 283.9 809.56 369.7 830.66 468.5z" p-id="4965"></path><path d="M315.36 553.2l-44 0c25.1 134.5 126.1 234.4 246.6 257.1l0-44.4C413.16 737.8 336.46 652 315.36 553.2z" p-id="4966"></path><path d="M517.96 257.8l0-44.4c-120.6 22.7-221.6 122.6-246.6 257.1l44 0C336.46 371.8 413.16 286 517.96 257.8z" p-id="4967"></path></svg>