<svg t="1578733814530" class="icon" viewBox="0 0 1024 1024" version="1.1" xmlns="http://www.w3.org/2000/svg" p-id="52109" width="200" height="200"><path d="M192 192v160h160V192H192zM128 64h288a64 64 0 0 1 64 64v288a64 64 0 0 1-64 64H128a64 64 0 0 1-64-64V128a64 64 0 0 1 64-64zM192 672V832h160v-160H192z m-64-128h288a64 64 0 0 1 64 64V896a64 64 0 0 1-64 64H128a64 64 0 0 1-64-64V608a64 64 0 0 1 64-64zM672 672V832H832v-160h-160z m-64-128H896a64 64 0 0 1 64 64V896a64 64 0 0 1-64 64H608a64 64 0 0 1-64-64V608a64 64 0 0 1 64-64zM755.2 172.8a96 96 0 1 0 0 192 96 96 0 0 0 0-192z m0-128a224 224 0 1 1 0 448 224 224 0 0 1 0-448z" p-id="52110" fill="#bfbfbf"></path></svg>