<svg t="1578732788357" class="icon" viewBox="0 0 1024 1024" version="1.1" xmlns="http://www.w3.org/2000/svg" p-id="38578" width="200" height="200"><path d="M104.96 415.232l337.92 210.944c18.944 11.776 43.52 18.432 69.12 18.432s50.176-6.656 69.12-18.432l337.92-210.944c23.04-14.336 36.352-35.84 36.352-58.88s-13.312-44.544-36.352-58.88L581.12 86.528c-37.376-23.552-100.352-23.552-137.728 0L104.96 296.96c-23.04 14.336-36.352 35.84-36.352 58.88s13.312 45.056 36.352 59.392z" p-id="38579" fill="#bfbfbf"></path><path d="M445.44 776.192c18.432 12.288 42.496 18.432 66.56 18.432s47.616-6.144 66.56-18.432L943.616 532.48c13.824-9.216 17.408-27.648 8.192-41.472-9.216-13.824-27.648-17.408-41.472-8.192L545.28 726.528c-17.408 11.776-49.152 11.776-66.56 0L113.664 482.816c-13.824-9.216-32.256-5.632-41.472 8.192-9.216 13.824-5.632 32.256 8.192 41.472L445.44 776.192z" p-id="38580" fill="#bfbfbf"></path><path d="M910.336 643.584L545.28 887.296c-17.408 11.776-49.152 11.776-66.56 0L113.664 643.584c-13.824-9.216-32.256-5.632-41.472 8.192-9.216 13.824-5.632 32.256 8.192 41.472L445.44 936.96c18.432 12.288 42.496 18.432 66.56 18.432s47.616-6.144 66.56-18.432l365.056-243.712c13.824-9.216 17.408-27.648 8.192-41.472-8.704-13.824-27.648-17.408-41.472-8.192z" p-id="38581" fill="#bfbfbf"></path></svg>