<svg t="1578726337951" class="icon" viewBox="0 0 1024 1024" version="1.1" xmlns="http://www.w3.org/2000/svg" p-id="6338" width="200" height="200"><path d="M810.666667 352C810.666667 194.133333 682.666667 64 522.666667 64S234.666667 194.133333 234.666667 352c0 117.333333 70.4 217.6 170.666666 262.4-132.266667 40.533333-241.066667 153.6-275.2 298.666667-2.133333 10.666667 4.266667 23.466667 14.933334 25.6H149.333333c10.666667 0 19.2-6.4 21.333334-17.066667C211.2 759.466667 354.133333 640 514.133333 640h8.533334C682.666667 640 810.666667 512 810.666667 352z m-533.333334 0C277.333333 217.6 388.266667 106.666667 522.666667 106.666667S768 217.6 768 352 659.2 597.333333 522.666667 597.333333 277.333333 488.533333 277.333333 352zM701.866667 661.333333c0 12.8 8.533333 21.333333 21.333333 21.333334H874.666667c12.8 0 21.333333-8.533333 21.333333-21.333334s-8.533333-21.333333-21.333333-21.333333h-151.466667c-10.666667 0-21.333333 10.666667-21.333333 21.333333zM704 810.666667h170.666667c12.8 0 21.333333-8.533333 21.333333-21.333334s-8.533333-21.333333-21.333333-21.333333h-170.666667c-12.8 0-21.333333 8.533333-21.333333 21.333333s10.666667 21.333333 21.333333 21.333334zM620.8 898.133333h-21.333333c-12.8 0-21.333333 8.533333-21.333334 21.333334s8.533333 21.333333 21.333334 21.333333h21.333333c12.8 0 21.333333-8.533333 21.333333-21.333333s-10.666667-21.333333-21.333333-21.333334zM597.333333 810.666667h21.333334c12.8 0 21.333333-8.533333 21.333333-21.333334s-8.533333-21.333333-21.333333-21.333333h-21.333334c-12.8 0-21.333333 8.533333-21.333333 21.333333s8.533333 21.333333 21.333333 21.333334zM874.666667 896h-170.666667c-12.8 0-21.333333 8.533333-21.333333 21.333333s8.533333 21.333333 21.333333 21.333334h170.666667c12.8 0 21.333333-8.533333 21.333333-21.333334s-8.533333-21.333333-21.333333-21.333333z" p-id="6339" fill="#bfbfbf"></path></svg>
