<svg t="1582012049896" class="icon" viewBox="0 0 1024 1024" version="1.1" xmlns="http://www.w3.org/2000/svg" p-id="5317" width="200" height="200"><path d="M989.866667 894.293333L786.773333 691.2c121.173333-167.253333 105.813333-401.066667-44.373333-551.253333C662.186667 59.733333 554.666667 15.36 440.32 15.36s-221.866667 44.373333-302.08 124.586667c-167.253333 167.253333-167.253333 436.906667 0 604.16 80.213333 80.213333 187.733333 124.586667 302.08 124.586666 90.453333 0 177.493333-29.013333 249.173333-80.213333l204.8 201.386667c13.653333 13.653333 30.72 20.48 47.786667 20.48s34.133333-6.826667 47.786667-20.48c27.306667-25.6 27.306667-69.973333 0-95.573334zM235.52 646.826667c-112.64-112.64-112.64-296.96 0-411.306667 54.613333-54.613333 128-85.333333 204.8-85.333333s150.186667 30.72 204.8 85.333333c112.64 112.64 112.64 296.96 0 411.306667-54.613333 54.613333-128 85.333333-204.8 85.333333s-150.186667-30.72-204.8-85.333333z" p-id="5318" fill="#bfbfbf"></path></svg>