<?xml version="1.0" standalone="no"?><!DOCTYPE svg PUBLIC "-//W3C//DTD SVG 1.1//EN" "http://www.w3.org/Graphics/SVG/1.1/DTD/svg11.dtd"><svg t="1560306082047" class="icon" style="" viewBox="0 0 1024 1024" version="1.1" xmlns="http://www.w3.org/2000/svg" p-id="7617" xmlns:xlink="http://www.w3.org/1999/xlink" width="200" height="200"><defs><style type="text/css"></style></defs><path d="M82.184791 459.204563c-5.67321 0-11.30037-2.447748-15.180747-7.1744-6.877641-8.377808-5.66093-20.744463 2.716878-27.622104L500.550227 70.738088c8.376785-6.877641 20.74344-5.661953 27.622104 2.716878 6.877641 8.377808 5.66093 20.744463-2.716878 27.622104L94.626147 454.747042C90.974991 457.744305 86.566588 459.204563 82.184791 459.204563z" p-id="7618" fill="#dbdbdb"></path><path d="M944.323333 459.204563c-4.38282 0-8.7902-1.460258-12.441357-4.457522L501.051647 101.076046c-8.377808-6.877641-9.593496-19.244296-2.716878-27.622104 6.878664-8.378831 19.24532-9.593496 27.622104-2.716878l430.831352 353.670995c8.378831 6.877641 9.594519 19.244296 2.716878 27.622104C955.623703 456.756815 949.995519 459.204563 944.323333 459.204563z" p-id="7619" fill="#dbdbdb"></path><path d="M631.010511 963.855178c-10.838859 0-19.62599-8.78713-19.62599-19.62599L611.384521 650.01433c0-54.108339-44.021609-98.129948-98.129948-98.129948-54.108339 0-98.129948 44.021609-98.129948 98.129948l0 294.214858c0 10.838859-8.786107 19.62599-19.62599 19.62599s-19.62599-8.78713-19.62599-19.62599L375.872646 650.01433c0-75.752288 61.629639-137.380904 137.381927-137.380904s137.380904 61.628616 137.380904 137.380904l0 294.214858C650.635477 955.068048 641.848347 963.855178 631.010511 963.855178z" p-id="7620" fill="#dbdbdb"></path><path d="M788.017404 963.858248l-549.525662 0c-54.108339 0-98.129948-44.020586-98.129948-98.129948L140.361795 376.516306c0-10.838859 8.786107-19.62599 19.62599-19.62599s19.62599 8.78713 19.62599 19.62599l0 489.213018c0 32.465412 26.412556 58.877969 58.877969 58.877969l549.525662 0c32.465412 0 58.877969-26.41358 58.877969-58.877969L846.895373 376.490723c0-10.838859 8.786107-19.62599 19.62599-19.62599 10.838859 0 19.62599 8.786107 19.62599 19.62599l0 489.2386C886.147352 919.838685 842.126766 963.858248 788.017404 963.858248z" p-id="7621" fill="#dbdbdb"></path></svg>